<svg width="36" height="36" viewBox="0 0 36 36" fill="none" xmlns="http://www.w3.org/2000/svg">
<path d="M12.8355 20.25H7.023C6.25289 20.2544 5.51581 20.5633 4.9728 21.1094C4.42978 21.6556 4.12499 22.3944 4.125 23.1645V28.977C4.125 29.7456 4.43032 30.4827 4.9738 31.0262C5.51729 31.5697 6.2544 31.875 7.023 31.875H12.8355C13.6055 31.875 14.3442 31.5702 14.89 31.0271C15.4359 30.4841 15.7445 29.747 15.7485 28.977V23.1645C15.7485 22.3919 15.4416 21.651 14.8953 21.1047C14.349 20.5584 13.6081 20.2515 12.8355 20.2515M12.8355 4.125H7.023C6.64243 4.125 6.26558 4.19996 5.91398 4.3456C5.56238 4.49124 5.24291 4.7047 4.9738 4.9738C4.7047 5.24291 4.49124 5.56238 4.3456 5.91398C4.19996 6.26558 4.125 6.64243 4.125 7.023V12.8355C4.12499 13.6055 4.42983 14.3442 4.97289 14.89C5.51594 15.4359 6.25303 15.7445 7.023 15.7485H12.8355C13.6081 15.7485 14.349 15.4416 14.8953 14.8953C15.4416 14.349 15.7485 13.6081 15.7485 12.8355V7.023C15.7445 6.25303 15.4359 5.51594 14.89 4.97289C14.3442 4.42983 13.6055 4.12499 12.8355 4.125ZM28.977 4.125H23.1645C22.3945 4.12499 21.6558 4.42983 21.11 4.97289C20.5641 5.51594 20.2555 6.25303 20.2515 7.023V12.8355C20.2519 13.608 20.5589 14.3487 21.1051 14.8949C21.6513 15.4411 22.392 15.7481 23.1645 15.7485H28.977C29.747 15.7445 30.4841 15.4359 31.0271 14.89C31.5702 14.3442 31.875 13.6055 31.875 12.8355V7.023C31.875 6.2544 31.5697 5.51729 31.0262 4.9738C30.4827 4.43032 29.7456 4.125 28.977 4.125ZM26.0625 20.25C24.5209 20.25 23.0425 20.8624 21.9524 21.9524C20.8624 23.0425 20.25 24.5209 20.25 26.0625C20.25 27.6041 20.8624 29.0825 21.9524 30.1726C23.0425 31.2626 24.5209 31.875 26.0625 31.875C27.6041 31.875 29.0825 31.2626 30.1726 30.1726C31.2626 29.0825 31.875 27.6041 31.875 26.0625C31.875 24.5209 31.2626 23.0425 30.1726 21.9524C29.0825 20.8624 27.6041 20.25 26.0625 20.25Z" stroke="#7D7D7D" stroke-width="1.5" stroke-linecap="round" stroke-linejoin="round"/>
</svg>
