<svg width="20" height="20" viewBox="0 0 20 20" fill="none" xmlns="http://www.w3.org/2000/svg">
<path d="M4.35301 4.33412C4.44359 4.24621 4.56537 4.19788 4.69158 4.19976C4.81778 4.20163 4.93808 4.25356 5.02601 4.34412C5.12214 4.44438 5.1749 4.57848 5.17284 4.71737C5.17078 4.85626 5.11407 4.98875 5.01501 5.08612C3.72187 6.39448 2.99769 8.16055 3.00001 10.0001C3.00001 11.9901 3.83001 13.7861 5.16401 15.0601C5.21552 15.1077 5.25703 15.1651 5.28612 15.2289C5.31521 15.2927 5.33129 15.3617 5.33343 15.4318C5.33557 15.5019 5.32373 15.5717 5.29859 15.6372C5.27345 15.7027 5.23551 15.7625 5.18701 15.8131C5.10098 15.902 4.98369 15.9538 4.86007 15.9575C4.73644 15.9613 4.61624 15.9166 4.52501 15.8331C3.72688 15.0858 3.0909 14.1823 2.65654 13.1789C2.22217 12.1755 1.99871 11.0935 2.00001 10.0001C2.00001 7.78612 2.90001 5.78212 4.35301 4.33412ZM14.985 5.08612C14.8861 4.98862 14.8295 4.85606 14.8277 4.71717C14.8258 4.57828 14.8787 4.44425 14.975 4.34412C15.0629 4.25386 15.183 4.20213 15.3089 4.20026C15.4349 4.19838 15.5565 4.24652 15.647 4.33412C16.3939 5.07643 16.9863 5.95931 17.3902 6.93179C17.794 7.90428 18.0013 8.94711 18 10.0001C18 12.3001 17.03 14.3741 15.475 15.8331C15.3838 15.9166 15.2636 15.9613 15.1399 15.9575C15.0163 15.9538 14.899 15.902 14.813 15.8131C14.7646 15.7625 14.7268 15.7027 14.7018 15.6374C14.6767 15.572 14.6649 15.5023 14.6671 15.4323C14.6692 15.3623 14.6853 15.2935 14.7143 15.2297C14.7433 15.166 14.7846 15.1087 14.836 15.0611C15.5209 14.4083 16.0659 13.623 16.4379 12.7529C16.8099 11.8829 17.0012 10.9463 17 10.0001C17.0024 8.16024 16.2782 6.39485 14.985 5.08612ZM6.13201 6.09012C6.22112 6.00525 6.3403 5.95925 6.46332 5.96225C6.58634 5.96525 6.70314 6.017 6.78801 6.10612C6.99601 6.31412 6.97501 6.65612 6.77001 6.86612C5.95398 7.70507 5.49822 8.82976 5.50001 10.0001C5.50001 11.2901 6.04301 12.4541 6.91401 13.2751C7.13401 13.4821 7.16401 13.8361 6.94901 14.0511C6.86659 14.1368 6.75438 14.1875 6.63561 14.1927C6.51683 14.1979 6.40061 14.1573 6.31101 14.0791C5.74016 13.5641 5.28396 12.9348 4.97197 12.2321C4.65998 11.5294 4.49919 10.769 4.50001 10.0001C4.49891 9.27268 4.64264 8.55231 4.92284 7.88101C5.20304 7.20971 5.61408 6.60091 6.13201 6.09012ZM13.23 6.86612C13.025 6.65612 13.004 6.31412 13.212 6.10612C13.2969 6.017 13.4137 5.96525 13.5367 5.96225C13.6597 5.95925 13.7789 6.00525 13.868 6.09012C14.3858 6.60101 14.7968 7.20983 15.0769 7.88111C15.3571 8.55239 15.5009 9.27271 15.5 10.0001C15.5011 10.7691 15.3405 11.5296 15.0287 12.2325C14.7169 12.9354 14.2608 13.5649 13.69 14.0801C13.6 14.1586 13.4832 14.1993 13.364 14.1937C13.2447 14.1881 13.1322 14.1367 13.05 14.0501C12.836 13.8361 12.866 13.4821 13.086 13.2751C13.5331 12.8549 13.8892 12.3475 14.1324 11.7842C14.3757 11.2209 14.5008 10.6137 14.5 10.0001C14.5018 8.82976 14.046 7.70507 13.23 6.86612ZM10 8.75012C9.66849 8.75012 9.35054 8.88181 9.11612 9.11623C8.8817 9.35065 8.75001 9.66859 8.75001 10.0001C8.75001 10.3316 8.8817 10.6496 9.11612 10.884C9.35054 11.1184 9.66849 11.2501 10 11.2501C10.3315 11.2501 10.6495 11.1184 10.8839 10.884C11.1183 10.6496 11.25 10.3316 11.25 10.0001C11.25 9.66859 11.1183 9.35065 10.8839 9.11623C10.6495 8.88181 10.3315 8.75012 10 8.75012Z" fill="#7D7D7D"/>
</svg>
