<svg width="30" height="30" viewBox="0 0 30 30" fill="none" xmlns="http://www.w3.org/2000/svg">
<path d="M14.9998 1.25C19.6011 1.25 23.7498 4.45625 23.7498 8.75V14.4237C23.7498 15.2262 23.9861 16.01 24.4311 16.6775L27.1811 20.8C27.372 21.0857 27.4818 21.4178 27.4986 21.761C27.5154 22.1042 27.4386 22.4455 27.2765 22.7485C27.1143 23.0514 26.8729 23.3046 26.5781 23.481C26.2832 23.6574 25.9459 23.7504 25.6023 23.75H19.3748C19.3748 24.3245 19.2617 24.8934 19.0418 25.4242C18.8219 25.955 18.4997 26.4373 18.0934 26.8436C17.6872 27.2498 17.2049 27.5721 16.6741 27.792C16.1433 28.0118 15.5744 28.125 14.9998 28.125C14.4253 28.125 13.8564 28.0118 13.3256 27.792C12.7948 27.5721 12.3125 27.2498 11.9062 26.8436C11.5 26.4373 11.1777 25.955 10.9579 25.4242C10.738 24.8934 10.6248 24.3245 10.6248 23.75H4.39859C4.05514 23.7503 3.71805 23.6573 3.42327 23.4811C3.1285 23.3049 2.88708 23.0519 2.72477 22.7492C2.56246 22.4466 2.48535 22.1055 2.50165 21.7624C2.51795 21.4194 2.62706 21.0872 2.81734 20.8013L5.56734 16.6775C6.01235 16.0101 6.24983 15.2259 6.24984 14.4237V8.75C6.24984 4.45625 10.3973 1.25 14.9998 1.25ZM8.12484 8.75V14.4237C8.12516 15.5959 7.77852 16.742 7.12859 17.7175L4.37859 21.84L4.37484 21.8525L4.37609 21.8612L4.38109 21.8688L4.38859 21.8738L4.39734 21.875H25.6023L25.6111 21.8738L25.6186 21.8688L25.6236 21.8612L25.6248 21.8538C25.6249 21.8493 25.6236 21.8449 25.6211 21.8412L22.8723 17.7175C22.2222 16.742 21.8751 15.596 21.8748 14.4237V8.75C21.8748 5.795 18.8961 3.125 14.9998 3.125C11.1036 3.125 8.12484 5.795 8.12484 8.75ZM17.4998 23.75H12.4998C12.4998 24.413 12.7632 25.0489 13.2321 25.5178C13.7009 25.9866 14.3368 26.25 14.9998 26.25C15.6629 26.25 16.2988 25.9866 16.7676 25.5178C17.2364 25.0489 17.4998 24.413 17.4998 23.75Z" fill="white"/>
</svg>
