<svg width="28" height="28" viewBox="0 0 28 28" fill="none" xmlns="http://www.w3.org/2000/svg">
<path d="M12.1923 6.80004L7.96355 1.91879C7.47605 1.35629 6.5823 1.35879 6.01605 1.92629L2.53855 5.41004C1.50355 6.44629 1.2073 7.98504 1.80605 9.21879C5.38308 16.625 11.3561 22.6064 18.7573 26.1938C19.9898 26.7925 21.5273 26.4963 22.5623 25.46L26.0723 21.9438C26.6411 21.375 26.6423 20.4763 26.0748 19.9888L21.1748 15.7825C20.6623 15.3425 19.8661 15.4 19.3523 15.915L17.6473 17.6225C17.56 17.714 17.4451 17.7743 17.3202 17.7942C17.1954 17.8141 17.0674 17.7924 16.9561 17.7325C14.1691 16.1277 11.8573 13.8128 10.2561 11.0238C10.1961 10.9122 10.1744 10.7841 10.1942 10.659C10.2141 10.5339 10.2745 10.4188 10.3661 10.3313L12.0661 8.63004C12.5811 8.11254 12.6373 7.31379 12.1923 6.80004Z" stroke="white" stroke-width="2" stroke-linecap="round" stroke-linejoin="round"/>
</svg>
