<svg width="36" height="36" viewBox="0 0 36 36" fill="none" xmlns="http://www.w3.org/2000/svg">
<g clip-path="url(#clip0_2894_240)">
<path d="M34.3545 17.592L27.5625 15.0465V7.41749C27.5617 6.902 27.4038 6.39899 27.1098 5.97555C26.8158 5.55212 26.3997 5.22837 25.917 5.04749L18.8865 2.41199C18.3135 2.19405 17.6805 2.19405 17.1075 2.41199L10.0755 5.04899C9.59242 5.22933 9.17597 5.55294 8.88189 5.9765C8.58781 6.40006 8.43014 6.90335 8.43 7.41899V15.0465L1.638 17.592C1.15669 17.7741 0.742188 18.0983 0.449603 18.5217C0.157018 18.945 0.000201946 19.4474 0 19.962L0 27.702C0 28.659 0.54 29.538 1.3995 29.967L8.43 33.483C8.78135 33.6597 9.1692 33.7518 9.5625 33.7518C9.9558 33.7518 10.3436 33.6597 10.695 33.483L18 29.826L25.305 33.483C25.6564 33.6597 26.0442 33.7518 26.4375 33.7518C26.8308 33.7518 27.2186 33.6597 27.57 33.483L34.6005 29.967C35.0209 29.7564 35.3744 29.433 35.6215 29.033C35.8687 28.633 35.9997 28.1722 36 27.702V19.962C36 18.9075 35.346 17.9655 34.3545 17.592ZM25.1715 15.102L19.1955 17.346V12.5505L25.1715 9.94949V15.102ZM10.83 7.31999L18 4.63499L25.1715 7.31999V7.36199L18 10.272L10.8285 7.36199L10.83 7.31999ZM16.7355 27.7875L10.7595 30.7755V25.215L16.7355 22.488V27.7875ZM16.7355 19.9125L9.564 22.8225L2.3925 19.9125V19.8705L9.564 17.1855L16.7355 19.8705V19.9125ZM33.6105 27.7875L27.6345 30.7755V25.215L33.6105 22.488V27.7875ZM33.6105 19.9125L26.439 22.8225L19.2675 19.9125V19.8705L26.439 17.1855L33.6105 19.8705V19.9125Z" fill="#7D7D7D"/>
</g>
<defs>
<clipPath id="clip0_2894_240">
<rect width="36" height="36" fill="white"/>
</clipPath>
</defs>
</svg>
