<svg width="20" height="20" viewBox="0 0 20 20" fill="none" xmlns="http://www.w3.org/2000/svg">
<path d="M12.775 2.57104L8.97664 5.00909L9.36164 5.21991L12.7409 3.05077L18.4728 6.29749L15.1851 8.40776L15.3452 8.49542V8.76292L17.9204 7.10995L18.4608 7.41612L15.3452 9.41593V9.87386L17.8699 8.25327L18.4608 8.58804L15.3452 10.5878V11.0458L17.8699 9.42519L18.4608 9.75995L15.3452 11.7598V12.2177L19.2527 9.70948L18.2829 9.16019L19.2527 8.53765L18.2829 7.98827L19.2527 7.36573L18.3332 6.84491L19.2646 6.24706L12.775 2.57104ZM13.9885 4.3187C13.1667 4.73104 12.0721 4.80081 11.3014 4.48991L9.79477 5.45698L14.7519 8.17065L16.1809 7.25347C15.618 6.80909 15.6649 6.14605 16.2958 5.62573L13.9885 4.3187ZM8.88734 5.76183L6.12609 7.56237L11.4234 10.6118L11.4753 10.5786C11.573 10.5157 11.7109 10.4267 11.8754 10.3203C12.2043 10.1077 12.6396 9.82577 13.0736 9.54452C13.6987 9.13944 14.0208 8.93046 14.3203 8.73616L8.88734 5.76183ZM13.3978 5.80753H13.3979C13.5228 5.80829 13.6374 5.83507 13.7229 5.88351C13.7727 5.91169 13.8113 5.94647 13.8365 5.98583C13.8618 6.0252 13.8731 6.0684 13.87 6.11295C13.8668 6.1575 13.8492 6.20254 13.8181 6.24549C13.7871 6.28844 13.7432 6.32846 13.6889 6.36327C13.6347 6.39808 13.5712 6.427 13.502 6.44837C13.4329 6.46974 13.3594 6.48315 13.2859 6.48782C13.2124 6.4925 13.1402 6.48836 13.0734 6.47564C13.0067 6.46291 12.9468 6.44185 12.897 6.41366C12.7965 6.35673 12.7436 6.27421 12.75 6.18425C12.7564 6.0943 12.8215 6.00427 12.931 5.93397C12.9932 5.89405 13.0674 5.86193 13.1483 5.84004C13.2291 5.81815 13.3144 5.80703 13.3978 5.80753ZM4.86562 7.64796L0.748242 10.2907L1.66766 10.8116L0.736328 11.4094L1.70617 11.9587L0.736328 12.5813L1.70617 13.1307L0.736328 13.7532L7.22598 17.4292L11.1441 14.9142V14.4564L7.26 16.9495L1.5282 13.7027L2.08504 13.3453L7.22598 16.2573L11.1441 13.7423V13.2845L7.26 15.7776L1.5282 12.5308L2.08504 12.1734L7.22598 15.0854L11.1441 12.5704V12.1126L7.26 14.6057L1.5282 11.359L2.04656 11.0262L7.23797 13.9668L11.1441 11.4594V11.2622L10.93 11.139L7.27184 13.487L1.5402 10.2403L5.24176 7.86437L4.86559 7.64784L4.86562 7.64796ZM5.66484 8.10812L3.83203 9.28448C4.39492 9.72878 4.34805 10.3918 3.71711 10.9122L6.02445 12.2192C6.84621 11.8069 7.94074 11.7371 8.71145 12.048L10.507 10.8955L5.66477 8.10808L5.66484 8.10812ZM14.6421 9.36554C14.3279 9.56933 14.0507 9.74921 13.456 10.1346C13.0565 10.3936 12.6569 10.6523 12.2572 10.9109C12.0925 11.0173 11.9543 11.1066 11.8557 11.17C11.8522 11.1723 11.8507 11.1731 11.8473 11.1753V14.5317L14.6421 12.6533L14.6421 9.36554ZM6.7909 10.0483C6.91584 10.0491 7.03038 10.0759 7.1159 10.1244C7.2164 10.1813 7.26928 10.2639 7.2629 10.3538C7.25653 10.4438 7.19143 10.5338 7.08191 10.6041C6.9724 10.6744 6.82747 10.7192 6.67898 10.7286C6.53049 10.7381 6.39062 10.7114 6.29012 10.6545C6.18962 10.5976 6.13674 10.515 6.14311 10.4251C6.14949 10.3351 6.21459 10.2451 6.3241 10.1748C6.3863 10.1349 6.46058 10.1028 6.54141 10.0809C6.62224 10.059 6.70752 10.0479 6.7909 10.0484V10.0483Z" fill="white"/>
</svg>
