<svg width="24" height="24" viewBox="0 0 24 24" fill="none" xmlns="http://www.w3.org/2000/svg">
<g clip-path="url(#clip0_2940_178)">
<path d="M9.59968 14.4H14.3997V7.19995H17.9997L11.9997 1.19995L5.99968 7.19995H9.59968V14.4ZM23.2053 16.2384C22.9533 15.9696 21.2721 14.1708 20.7921 13.7016C20.4557 13.3791 20.0076 13.1994 19.5417 13.2H17.4333L21.1101 16.7928H16.8573C16.7995 16.7917 16.7424 16.8059 16.6919 16.8339C16.6413 16.8619 16.599 16.9028 16.5693 16.9524L15.5901 19.2H8.40928L7.43008 16.9524C7.40016 16.9029 7.35784 16.8622 7.30732 16.8342C7.2568 16.8062 7.19984 16.7919 7.14208 16.7928H2.88928L6.56488 13.2H4.45768C3.98128 13.2 3.52648 13.3908 3.20728 13.7016C2.72728 14.172 1.04608 15.9708 0.794084 16.2384C0.207284 16.8636 -0.115516 17.3616 0.0380842 17.9772L0.711284 21.666C0.864884 22.2828 1.54048 22.7892 2.21368 22.7892H21.7881C22.4613 22.7892 23.1369 22.2828 23.2905 21.666L23.9637 17.9772C24.1149 17.3616 23.7933 16.8636 23.2053 16.2384Z" fill="#fff"/>
</g>
<defs>
<clipPath id="clip0_2940_178">
<rect width="24" height="24" fill="white"/>
</clipPath>
</defs>
</svg>
