<svg width="36" height="36" viewBox="0 0 36 36" fill="none" xmlns="http://www.w3.org/2000/svg">
<g clip-path="url(#clip0_2894_242)">
<path d="M35.6711 18.796L32.2961 22.171C32.1916 22.2756 32.0675 22.3586 31.9309 22.4152C31.7944 22.4718 31.648 22.5009 31.5001 22.5009C31.3523 22.5009 31.2059 22.4718 31.0693 22.4152C30.9328 22.3586 30.8087 22.2756 30.7042 22.171L27.3292 18.796C27.1181 18.5849 26.9995 18.2986 26.9995 18.0001C26.9995 17.7015 27.1181 17.4152 27.3292 17.2041C27.5403 16.993 27.8266 16.8744 28.1251 16.8744C28.4237 16.8744 28.71 16.993 28.9211 17.2041L30.3751 18.6596V18.0001C30.3764 15.3797 29.5459 12.8266 28.0032 10.7084C26.4606 8.59033 24.2853 7.01657 21.7909 6.21388C19.2966 5.41119 16.6118 5.421 14.1233 6.24191C11.6348 7.06282 9.4712 8.65244 7.94404 10.7818C7.76987 11.0242 7.50653 11.1875 7.21195 11.2358C6.91737 11.284 6.61569 11.2133 6.37326 11.0391C6.13084 10.865 5.96753 10.6016 5.91927 10.307C5.87101 10.0125 5.94175 9.71077 6.11592 9.46834C7.92082 6.95189 10.4779 5.07331 13.4189 4.10324C16.3598 3.13317 19.5328 3.12169 22.4807 4.07044C25.4286 5.01919 27.9993 6.8792 29.8223 9.38252C31.6454 11.8858 32.6268 14.9033 32.6251 18.0001V18.6596L34.0792 17.2041C34.2903 16.993 34.5766 16.8744 34.8751 16.8744C35.1737 16.8744 35.46 16.993 35.6711 17.2041C35.8822 17.4152 36.0008 17.7015 36.0008 18.0001C36.0008 18.2986 35.8822 18.5849 35.6711 18.796ZM29.8801 26.5304C28.0747 29.0449 25.518 30.9218 22.578 31.8907C19.6379 32.8597 16.4663 32.8708 13.5196 31.9224C10.5729 30.974 8.00307 29.1151 6.18009 26.6133C4.35712 24.1114 3.37501 21.0956 3.37514 18.0001V17.3405L1.92107 18.796C1.70998 19.0071 1.42367 19.1257 1.12514 19.1257C0.826603 19.1257 0.540296 19.0071 0.3292 18.796C0.118104 18.5849 -0.000488281 18.2986 -0.000488281 18.0001C-0.000488281 17.7015 0.118104 17.4152 0.3292 17.2041L3.7042 13.8291C3.80868 13.7245 3.93276 13.6415 4.06933 13.5849C4.2059 13.5283 4.35229 13.4992 4.50014 13.4992C4.64798 13.4992 4.79437 13.5283 4.93094 13.5849C5.06752 13.6415 5.19159 13.7245 5.29607 13.8291L8.67107 17.2041C8.88217 17.4152 9.00076 17.7015 9.00076 18.0001C9.00076 18.2986 8.88217 18.5849 8.67107 18.796C8.45998 19.0071 8.17367 19.1257 7.87514 19.1257C7.5766 19.1257 7.2903 19.0071 7.0792 18.796L5.62514 17.3405V18.0001C5.62247 21.0294 6.73586 23.9536 8.75264 26.214C10.0073 24.3958 11.7716 22.9892 13.8236 22.171C12.7213 21.3028 11.917 20.1128 11.5225 18.7663C11.128 17.4199 11.1628 15.9839 11.6222 14.6582C12.0816 13.3324 12.9427 12.1828 14.0858 11.3692C15.2289 10.5555 16.5971 10.1183 18.0001 10.1183C19.4032 10.1183 20.7714 10.5555 21.9145 11.3692C23.0576 12.1828 23.9187 13.3324 24.3781 14.6582C24.8375 15.9839 24.8723 17.4199 24.4778 18.7663C24.0833 20.1128 23.2789 21.3028 22.1767 22.171C24.2306 22.9893 25.9961 24.3976 27.2505 26.2182C27.5349 25.8987 27.8029 25.565 28.0534 25.2183C28.2276 24.9759 28.4909 24.8126 28.7855 24.7644C29.0801 24.7161 29.3818 24.7868 29.6242 24.961C29.8666 25.1352 30.0299 25.3985 30.0782 25.6931C30.1265 25.9877 30.0557 26.2894 29.8815 26.5318L29.8801 26.5304ZM18.0001 21.3751C18.8902 21.3751 19.7602 21.1111 20.5002 20.6167C21.2402 20.1222 21.817 19.4194 22.1576 18.5971C22.4982 17.7749 22.5873 16.8701 22.4137 15.9972C22.24 15.1242 21.8115 14.3224 21.1821 13.6931C20.5528 13.0637 19.751 12.6352 18.878 12.4615C18.0051 12.2879 17.1003 12.377 16.2781 12.7176C15.4558 13.0582 14.753 13.635 14.2585 14.375C13.7641 15.115 13.5001 15.985 13.5001 16.8751C13.5001 18.0685 13.9742 19.2131 14.8182 20.057C15.6621 20.901 16.8067 21.3751 18.0001 21.3751ZM18.0001 30.3751C20.7458 30.3715 23.4126 29.457 25.5826 27.7749C24.7688 26.5021 23.6476 25.4546 22.3225 24.729C20.9974 24.0035 19.5109 23.6232 18.0001 23.6232C16.4894 23.6232 15.0029 24.0035 13.6778 24.729C12.3526 25.4546 11.2315 26.5021 10.4176 27.7749C12.5844 29.463 15.2534 30.3782 18.0001 30.3751Z" fill="#7D7D7D"/>
</g>
<defs>
<clipPath id="clip0_2894_242">
<rect width="36" height="36" fill="white"/>
</clipPath>
</defs>
</svg>
