<svg width="30" height="30" viewBox="0 0 30 30" fill="none" xmlns="http://www.w3.org/2000/svg">
<g clip-path="url(#clip0_2893_210)">
<path d="M15 0C6.71694 0 0 6.71694 0 15C0 20.3857 2.83643 25.1015 7.09107 27.7465C7.11717 27.7639 7.14327 27.7726 7.16937 27.79C7.20418 27.8074 7.23898 27.8335 7.27378 27.8509C7.28248 27.8509 7.28248 27.8596 7.29118 27.8596C7.93504 28.2512 8.61369 28.5905 9.31845 28.8776C9.33585 28.8863 9.36195 28.895 9.37935 28.9037C9.50116 28.9559 9.63167 28.9994 9.75348 29.0516C9.77958 29.0603 9.80569 29.069 9.83179 29.0777C9.9797 29.1299 10.1276 29.1821 10.2755 29.2343C10.2929 29.243 10.3016 29.243 10.319 29.2517C11.7894 29.739 13.3643 30 15 30C15.6439 30 16.279 29.9565 16.8968 29.8782C15.4959 27.5116 15.5568 24.5621 15.0696 23.7355C14.4171 22.6218 13.4165 22.8828 11.9983 23.2222C10.5713 23.5615 8.7268 23.3092 8.50058 22.4217C8.27436 21.5429 8.86601 21.1427 8.7877 20.7425C8.7094 20.3422 7.74362 20.3422 7.65661 19.5766C7.56961 18.8109 8.43968 18.837 8.43968 18.837C8.43968 18.837 7.18678 18.4629 7.24768 17.8451C7.30859 17.2187 8.12645 16.8532 8.01334 16.5661C8.01334 16.5661 6.63863 16.3573 6.89095 15.4872C7.01276 15.0696 7.40429 14.478 7.82193 13.8428C7.82193 13.8428 8.27436 13.2077 8.65719 12.5203C8.7877 12.2854 8.90081 12.0592 8.98782 11.8416V11.8329C9.09223 11.5719 9.15313 11.3283 9.14443 11.1108C9.10963 9.9362 7.76102 8.81381 8.32657 6.54292C8.7442 4.88979 10.5452 3.60209 10.5452 3.60209C10.5452 3.60209 10.5539 3.65429 10.58 3.75C9.90139 9.80568 12.4072 10.8585 15.7396 13.1468C19.0458 15.4176 22.6566 19.9333 18.2541 23.5702C18.2367 23.5789 18.2106 23.5963 18.1932 23.605C18.1236 23.6311 18.0626 23.6485 18.0017 23.6659C18.0017 23.6659 18.0191 23.6746 18.0539 23.6833C18.0452 23.692 18.0365 23.692 18.0278 23.7007L18.08 23.692H18.0887C18.0713 23.7007 18.0539 23.7181 18.0452 23.7268L18.1148 23.692C18.5238 23.8225 20.0203 24.1705 21.0818 22.6131C20.8904 24.9623 17.906 25.9455 18.3237 29.6172C25.0058 28.1032 29.9913 22.1346 29.9913 14.9913C30 6.71694 23.2831 0 15 0Z" fill="white"/>
</g>
<defs>
<clipPath id="clip0_2893_210">
<rect width="30" height="30" fill="white"/>
</clipPath>
</defs>
</svg>
