<svg width="30" height="30" viewBox="0 0 30 30" fill="none" xmlns="http://www.w3.org/2000/svg">
<path d="M2.5 29.375L27.5 29.375C27.9973 29.375 28.4742 29.1775 28.8258 28.8258C29.1775 28.4742 29.375 27.9973 29.375 27.5L29.375 2.5C29.375 2.00272 29.1775 1.52581 28.8258 1.17418C28.4742 0.822544 27.9973 0.625 27.5 0.625L2.5 0.624998C2.00272 0.624998 1.52581 0.822542 1.17418 1.17417C0.822547 1.5258 0.625002 2.00272 0.625002 2.5L0.625 27.5C0.625 27.9973 0.822544 28.4742 1.17418 28.8258C1.52581 29.1775 2.00272 29.375 2.5 29.375ZM1.875 2.5C1.875 2.33424 1.94085 2.17527 2.05806 2.05806C2.17527 1.94085 2.33424 1.875 2.5 1.875L27.5 1.875C27.6658 1.875 27.8247 1.94085 27.9419 2.05806C28.0592 2.17527 28.125 2.33424 28.125 2.5L28.125 27.5C28.125 27.6658 28.0592 27.8247 27.9419 27.9419C27.8247 28.0592 27.6658 28.125 27.5 28.125L2.5 28.125C2.33424 28.125 2.17527 28.0591 2.05806 27.9419C1.94085 27.8247 1.875 27.6658 1.875 27.5L1.875 2.5ZM8.30781 15.4422C8.2497 15.3841 8.2036 15.3152 8.17215 15.2393C8.1407 15.1635 8.12451 15.0821 8.12451 15C8.12451 14.9179 8.1407 14.8365 8.17215 14.7607C8.2036 14.6848 8.2497 14.6159 8.30781 14.5578L13.3078 9.55781C13.4251 9.44054 13.5841 9.37465 13.75 9.37465C13.9159 9.37465 14.0749 9.44054 14.1922 9.55781C14.3095 9.67509 14.3753 9.83415 14.3753 10C14.3753 10.1659 14.3095 10.3249 14.1922 10.4422L10.2594 14.375L21.25 14.375C21.4158 14.375 21.5747 14.4408 21.6919 14.5581C21.8092 14.6753 21.875 14.8342 21.875 15C21.875 15.1658 21.8092 15.3247 21.6919 15.4419C21.5747 15.5592 21.4158 15.625 21.25 15.625L10.2594 15.625L14.1922 19.5578C14.3095 19.6751 14.3753 19.8341 14.3753 20C14.3753 20.1659 14.3095 20.3249 14.1922 20.4422C14.0749 20.5595 13.9159 20.6253 13.75 20.6253C13.5841 20.6253 13.4251 20.5595 13.3078 20.4422L8.30781 15.4422Z" fill="#004382"/>
</svg>
