<svg width="30" height="30" viewBox="0 0 30 30" fill="none" xmlns="http://www.w3.org/2000/svg">
<path d="M27.5 0.625H2.5C2.00272 0.625 1.52581 0.822544 1.17417 1.17417C0.822544 1.52581 0.625 2.00272 0.625 2.5V27.5C0.625 27.9973 0.822544 28.4742 1.17417 28.8258C1.52581 29.1775 2.00272 29.375 2.5 29.375H27.5C27.9973 29.375 28.4742 29.1775 28.8258 28.8258C29.1775 28.4742 29.375 27.9973 29.375 27.5V2.5C29.375 2.00272 29.1775 1.52581 28.8258 1.17417C28.4742 0.822544 27.9973 0.625 27.5 0.625ZM28.125 27.5C28.125 27.6658 28.0592 27.8247 27.9419 27.9419C27.8247 28.0592 27.6658 28.125 27.5 28.125H2.5C2.33424 28.125 2.17527 28.0592 2.05806 27.9419C1.94085 27.8247 1.875 27.6658 1.875 27.5V2.5C1.875 2.33424 1.94085 2.17527 2.05806 2.05806C2.17527 1.94085 2.33424 1.875 2.5 1.875H27.5C27.6658 1.875 27.8247 1.94085 27.9419 2.05806C28.0592 2.17527 28.125 2.33424 28.125 2.5V27.5ZM21.6922 14.5578C21.7503 14.6159 21.7964 14.6848 21.8279 14.7607C21.8593 14.8365 21.8755 14.9179 21.8755 15C21.8755 15.0821 21.8593 15.1635 21.8279 15.2393C21.7964 15.3152 21.7503 15.3841 21.6922 15.4422L16.6922 20.4422C16.5749 20.5595 16.4159 20.6253 16.25 20.6253C16.0841 20.6253 15.9251 20.5595 15.8078 20.4422C15.6905 20.3249 15.6247 20.1659 15.6247 20C15.6247 19.8341 15.6905 19.6751 15.8078 19.5578L19.7406 15.625H8.75C8.58424 15.625 8.42527 15.5592 8.30806 15.4419C8.19085 15.3247 8.125 15.1658 8.125 15C8.125 14.8342 8.19085 14.6753 8.30806 14.5581C8.42527 14.4408 8.58424 14.375 8.75 14.375H19.7406L15.8078 10.4422C15.6905 10.3249 15.6247 10.1659 15.6247 10C15.6247 9.83415 15.6905 9.67509 15.8078 9.55781C15.9251 9.44054 16.0841 9.37465 16.25 9.37465C16.4159 9.37465 16.5749 9.44054 16.6922 9.55781L21.6922 14.5578Z" fill="#004382"/>
</svg>
